<?xml version="1.0" standalone="no"?><!DOCTYPE svg PUBLIC "-//W3C//DTD SVG 1.1//EN" "http://www.w3.org/Graphics/SVG/1.1/DTD/svg11.dtd"><svg t="1686457685045" class="icon" viewBox="0 0 1024 1024" version="1.1" xmlns="http://www.w3.org/2000/svg" p-id="2401" width="48" height="48" xmlns:xlink="http://www.w3.org/1999/xlink"><path d="M820.394667 614.165333a21.333333 21.333333 0 0 0 30.165333-30.186666L528.853333 262.250667a21.333333 21.333333 0 0 0-30.186666 0L176.917333 583.978667a21.333333 21.333333 0 1 0 30.165334 30.186666L490.666667 330.581333v501.482667c0 11.882667 9.557333 21.269333 21.333333 21.269333 11.861333 0 21.333333-9.514667 21.333333-21.269333v-504.96l287.061334 287.061333zM170.666667 192c0-11.776 9.706667-21.333333 21.333333-21.333333h640c11.776 0 21.333333 9.472 21.333333 21.333333 0 11.776-9.706667 21.333333-21.333333 21.333333H192c-11.776 0-21.333333-9.472-21.333333-21.333333z" fill="#ffffff" p-id="2402"></path></svg>